<svg xmlns="http://www.w3.org/2000/svg" viewBox="0 0 175.386 166.192"><g fill="#262c3c"><path d="M36.368 156.337l-1.311-17.692-3.802-1.845-6.342 14.541-3.086-1.346 14.213-32.586c.912.335 5.92 2.27 7.28 2.864 6.381 2.783 7.538 8.268 5.69 12.504-2.122 4.865-5.89 7.081-10.599 6.459l1.515 18.652-3.557-1.552zm2.37-36.693l-6.89 15.796c.798.597 2.031 1.197 3.338 1.767 3.923 1.711 7.809-.205 9.977-5.174 2.099-4.812 1.264-9.036-2.502-10.679l-3.923-1.711zM50.935 143.632c1.89-10.387 9.353-17.614 18-16.041 8.085 1.471 12.933 9.894 11.033 20.337-1.89 10.387-9.354 17.614-18 16.041-8.141-1.481-12.933-9.893-11.033-20.337zm25.098 4.566c1.971-10.836-1.642-18.396-7.762-19.51-5.839-1.062-11.48 4.118-13.4 14.673-1.972 10.836 1.642 18.396 7.762 19.51 5.839 1.062 11.479-4.118 13.4-14.673zM87.098 161.024c1.939 2.484 4.295 4.092 7.317 3.957 4.276-.192 7-3.112 6.828-6.989-.171-3.82-2.046-6.135-7.591-8.8-5.603-2.663-8.242-5.458-8.469-10.532-.247-5.53 3.422-9.064 8.723-9.301 2.508-.112 5.97.646 7.788 1.707l-.776 3.062c-1.574-1.986-4.164-3.698-7.185-3.563-3.877.174-6.146 3.075-5.988 6.609.181 4.048 2.569 6.34 7.41 8.58 5.424 2.499 8.415 5.507 8.641 10.58.245 5.473-3.57 9.585-9.384 9.845-2.908.13-5.972-.703-8.091-2.094l.777-3.062zM114.396 163.658l-8.055-34.742 16.787-3.893.671 2.89c-2.178-.549-5.223-.546-9.336.407l-4.502 1.044 3.518 15.175 10.172-2.358.296 1.278-10.172 2.358 3.673 15.843 4.503-1.044c4.113-.953 6.849-2.291 8.563-3.743l.67 2.891-16.787 3.892v.002h-.001zM138.83 151.895c2.711 1.607 5.492 2.247 8.256 1.022 3.912-1.735 5.387-5.448 3.814-8.995-1.55-3.495-4.139-4.969-10.274-5.432-6.187-.44-9.662-2.083-11.721-6.726-2.244-5.061-.113-9.689 4.738-11.839 2.295-1.018 5.796-1.571 7.875-1.245l.392 3.135c-2.189-1.277-5.225-1.928-7.99-.702-3.547 1.573-4.605 5.101-3.171 8.335 1.642 3.704 4.7 4.97 10.025 5.293 5.962.353 9.842 2.066 11.901 6.709 2.22 5.008.164 10.227-5.157 12.586-2.66 1.18-5.818 1.518-8.298.995l-.392-3.135h.002z"/><g><path d="M78.139 112.777l-1.308-4.667h-4.905l-1.278 4.667h-.714l3.775-13.645-.059-.565 2.081-.475 4.073 14.686h-1.665zm-3.657-13.259h-.208l-2.2 7.997h4.608l-2.2-7.997zM89.39 112.866l-5.143-11.326a28.282 28.282 0 01-.773-1.873h-.178v13.11h-.654v-14.27l1.932-.148 5.143 11.326c.297.654.564 1.308.773 1.873h.178v-13.11h.654v14.27l-1.932.148zM95.465 98.508c.386-.03 2.735-.148 3.894-.148 3.567 0 6.094 2.972 6.094 7.045 0 4.132-2.616 7.462-6.124 7.462-1.13 0-3.478-.119-3.864-.148v-14.21zm3.775 13.734c2.467 0 4.37-2.319 4.37-6.481 0-4.251-2.021-6.778-4.459-6.778H97.07v13.258h2.17z"/></g><g><path d="M41.961 34.577c-2.225 1.598-4.394 2.454-7.189 2.454-8.445 0-14.208-7.76-14.208-18.487C20.564 8.216 25.813 0 34.772 0c3.081 0 5.763 1.027 8.045 2.682l-1.654 2.681c-1.769-2.625-4.109-4.165-6.904-4.165-5.877 0-9.872 6.333-9.872 16.547 0 10.67 4.336 18.031 11.184 18.031 2.168 0 3.88-.8 5.706-2.283l.685 1.084zM43.937 19.001C43.937 8.445 49.985 0 58.773 0c8.217 0 14.493 7.418 14.493 18.031 0 10.556-6.049 19-14.836 19-8.274 0-14.493-7.418-14.493-18.031zm25.505 0c0-11.012-4.907-17.802-11.126-17.802-5.934 0-10.556 6.105-10.556 16.833 0 11.012 4.907 17.802 11.126 17.802 5.935 0 10.556-6.106 10.556-16.833zM98.346.685h1.37V26.59c0 6.276-4.622 10.442-10.328 10.442-5.592 0-10.442-4.165-10.442-10.442V.685h3.423v26.133c0 4.85 3.594 8.502 7.931 8.502 4.28 0 8.045-3.766 8.045-8.502V.685h.001zM123.175 36.348l-8.274-15.691-4.222-.172v15.863h-3.367V.8c.97-.057 6.334-.285 7.817-.285 6.961 0 10.213 4.565 10.213 9.187 0 5.306-2.567 8.844-7.132 10.157l8.844 16.49h-3.879zM110.679 1.77v17.232c.97.228 2.339.285 3.766.285 4.279 0 7.075-3.309 7.075-8.73 0-5.249-2.454-8.787-6.562-8.787h-4.28zM138.154 36.348V1.941h-.855c-3.824 0-6.79.685-8.788 1.712V.687h22.71v2.966c-1.998-1.027-4.965-1.712-8.788-1.712h-.855v34.407h-3.424zM8.205 26.409l-1.308-4.667H1.992L.714 26.409H0l3.775-13.645-.059-.565 2.081-.475L9.87 26.41H8.205zM4.548 13.15H4.34l-2.2 7.997h4.608l-2.2-7.997z"/><g><path d="M152.193 19.394c0-4.31 2.438-7.67 6.302-7.67 3.627 0 6.184 3.062 6.184 7.373s-2.438 7.67-6.302 7.67c-3.627 0-6.184-3.062-6.184-7.373zm10.643.059c0-4.429-1.903-7.134-4.519-7.134-2.497 0-4.28 2.438-4.28 6.718 0 4.43 1.903 7.135 4.519 7.135 2.497 0 4.28-2.438 4.28-6.719zM167.954 26.409V12.08h7.432v1.337c-.862-.386-2.379-.714-4.044-.714h-1.783v6.273h4.697v.654h-4.697v6.778h-1.605z"/></g></g><g><path d="M18.486 85.316V50.909h-.855c-3.824 0-6.79.685-8.788 1.712v-2.966h22.71v2.966c-1.997-1.027-4.964-1.712-8.787-1.712h-.855v34.407h-3.425zM53.597 85.316v-17.86h-14.15v17.86H36.08V49.654h3.367v16.547h14.15V49.654h3.367v35.662h-3.367zM62.831 67.969c0-10.556 6.048-19.001 14.836-19.001 8.217 0 14.493 7.418 14.493 18.031 0 10.555-6.049 19-14.836 19-8.273 0-14.493-7.418-14.493-18.031zm25.505 0c0-11.012-4.907-17.803-11.126-17.803-5.934 0-10.556 6.106-10.556 16.833 0 11.012 4.907 17.802 11.126 17.802 5.935 0 10.556-6.106 10.556-16.833zM113.891 85.316l-8.274-15.691-4.222-.172v15.863h-3.367V49.768c.97-.057 6.334-.285 7.817-.285 6.961 0 10.213 4.565 10.213 9.187 0 5.306-2.567 8.844-7.132 10.157l8.844 16.49h-3.879zm-12.496-34.578V67.97c.97.228 2.339.285 3.766.285 4.279 0 7.075-3.309 7.075-8.73 0-5.249-2.454-8.787-6.562-8.787h-4.28zM138.758 85.544L125.862 56.9a37.88 37.88 0 01-1.654-4.28h-.285v32.695h-1.37V49.824l3.652-.399 12.896 28.643a38.047 38.047 0 011.655 4.28h.285V49.653h1.369v35.491l-3.652.399zM148.741 57.984c0-5.534 3.824-8.901 9.13-8.901 2.511 0 5.935.913 7.703 2.054l-.913 3.024c-1.483-2.054-3.994-3.88-7.018-3.88-3.88 0-6.277 2.796-6.277 6.334 0 4.051 2.283 6.447 7.018 8.901 5.307 2.739 8.16 5.877 8.16 10.955 0 5.478-3.994 9.415-9.814 9.415-2.911 0-5.935-.97-7.989-2.453l.913-3.025c1.826 2.568 4.109 4.28 7.133 4.28 4.28 0 7.133-2.796 7.133-6.676 0-3.823-1.769-6.22-7.189-9.13-5.478-2.91-7.989-5.82-7.989-10.899"/><path d="M77.496 68.764c-.171 0-.333-.034-.487-.103a1.23 1.23 0 01-.691-.691 1.26 1.26 0 01.274-1.392 1.24 1.24 0 01.196-.162c.068-.052.145-.086.222-.12a.82.82 0 01.239-.068c.41-.086.854.051 1.153.349.06.052.111.12.162.188.043.068.085.145.119.222.026.077.051.162.068.239a1.3 1.3 0 01-.068.743 1.404 1.404 0 01-.281.418 1.28 1.28 0 01-.905.376h-.001z"/></g><g><path d="M52.697 105.184H31.072a.5.5 0 010-1h21.625a.5.5 0 010 1z"/><path d="M55.988 111.288a.5.5 0 01-.5-.5c0-5.606-.079-5.606-4.208-5.606a.5.5 0 010-1c4.129 0 4.208 0 4.208-5.606a.5.5 0 011 0c0 5.606.079 5.606 4.209 5.606a.5.5 0 010 1c-4.13 0-4.209 0-4.209 5.606a.5.5 0 01-.5.5zm-.982-6.606c.449.233.763.569.982 1.049.219-.479.533-.815.982-1.049a2.107 2.107 0 01-.982-1.049 2.115 2.115 0 01-.982 1.049z"/><path d="M55.988 101.794a.5.5 0 01-.5-.5v-1.799a.5.5 0 011 0v1.799a.5.5 0 01-.5.5zM55.988 110.365a.5.5 0 01-.5-.5v-1.798a.5.5 0 011 0v1.798a.5.5 0 01-.5.5z"/><path d="M55.988 111.357a.5.5 0 01-.5-.5v-3.53a.5.5 0 011 0v3.53a.5.5 0 01-.5.5zM51.582 105.184h-1.626a.5.5 0 010-1h1.626a.5.5 0 010 1z"/><path d="M55.988 109.894a.5.5 0 01-.5-.5v-1.326a.5.5 0 011 0v1.326a.5.5 0 01-.5.5zM60.701 105.18h-1.327a.5.5 0 010-1h1.327a.5.5 0 010 1zM28.322 105.208a.448.448 0 01-.19-.04.442.442 0 01-.16-.11.47.47 0 01-.15-.35c0-.07.02-.131.04-.19.03-.06.06-.12.11-.16.04-.05.1-.09.16-.11a.5.5 0 01.38 0c.07.021.12.061.17.11a.5.5 0 01.1.54.452.452 0 01-.27.27.418.418 0 01-.19.04zM24.161 105.208a.473.473 0 01-.35-.15.355.355 0 01-.11-.16.404.404 0 01-.04-.189.47.47 0 01.15-.351c.04-.05.1-.09.16-.11a.51.51 0 01.55.11.5.5 0 01.1.54.452.452 0 01-.27.27.418.418 0 01-.19.04z"/><g><path d="M144.315 105.001h-21.624a.5.5 0 010-1h21.624a.5.5 0 010 1z"/><path d="M119.399 111.111a.5.5 0 01-.5-.5c0-5.606-.079-5.606-4.208-5.606a.5.5 0 010-1c4.129 0 4.208 0 4.208-5.607a.5.5 0 011 0c0 5.607.079 5.607 4.209 5.607a.5.5 0 010 1c-4.13 0-4.209 0-4.209 5.606a.5.5 0 01-.5.5zm-.981-6.606c.448.233.763.569.981 1.049a2.12 2.12 0 01.982-1.049 2.107 2.107 0 01-.982-1.049 2.117 2.117 0 01-.981 1.049z"/><path d="M119.399 110.189a.5.5 0 01-.5-.5v-1.798a.5.5 0 011 0v1.798a.5.5 0 01-.5.5zM119.399 101.618a.5.5 0 01-.5-.5V99.32a.5.5 0 011 0v1.798a.5.5 0 01-.5.5z"/><path d="M119.399 102.357a.5.5 0 01-.5-.5v-3.529a.5.5 0 011 0v3.529a.5.5 0 01-.5.5zM125.431 105.001h-1.627a.5.5 0 010-1h1.627a.5.5 0 010 1z"/><path d="M119.399 101.618a.5.5 0 01-.5-.5v-1.326a.5.5 0 011 0v1.326a.5.5 0 01-.5.5zM116.012 105.004h-1.326a.5.5 0 010-1h1.326a.5.5 0 010 1zM147.062 104.977a.403.403 0 01-.19-.04.419.419 0 01-.16-.11.453.453 0 01-.149-.35c0-.13.05-.26.149-.35a.345.345 0 01.16-.11c.18-.08.4-.03.54.11.05.04.09.1.11.159.029.061.04.131.04.19 0 .14-.051.26-.15.35a.34.34 0 01-.16.11c-.06.03-.12.04-.189.04zM151.221 104.977c-.06 0-.13-.01-.189-.04a.411.411 0 01-.16-.11.31.31 0 01-.11-.159.421.421 0 01-.04-.19c0-.13.051-.26.15-.35.05-.051.1-.091.16-.11.18-.08.399-.03.55.11a.5.5 0 01.1.54.368.368 0 01-.1.159.429.429 0 01-.17.11c-.06.03-.12.04-.19.04h-.001z"/></g></g></g></svg>