<?xml version="1.0" encoding="UTF-8" standalone="no"?>
<svg
   data-name="Layer 1"
   viewBox="0 0 201.777 102.817"
   version="1.1"
   id="svg18"
   sodipodi:docname="2ead1359ef2a16c8d1207930cec5b33f.svg"
   xmlns:inkscape="http://www.inkscape.org/namespaces/inkscape"
   xmlns:sodipodi="http://sodipodi.sourceforge.net/DTD/sodipodi-0.dtd"
   xmlns="http://www.w3.org/2000/svg"
   xmlns:svg="http://www.w3.org/2000/svg">
  <defs
     id="defs22" />
  <sodipodi:namedview
     id="namedview20"
     pagecolor="#ffffff"
     bordercolor="#666666"
     borderopacity="1.0"
     inkscape:pageshadow="2"
     inkscape:pageopacity="0.0"
     inkscape:pagecheckerboard="0" />
  <g
     fill="#262c3c"
     id="g16">
    <path
       d="M31.733 52.425c-.901 2.628-2.191 4.609-4.503 6.251-6.981 4.959-16.304 1.928-22.604-6.94-6.066-8.538-6.552-18.414.854-23.677 2.548-1.809 5.368-2.535 8.227-2.508l.207 3.189c-3.003-1.131-5.842-1.031-8.154.612C.901 32.803 1.319 40.385 7.318 48.83c6.267 8.822 14.175 12.36 19.836 8.338 1.793-1.273 2.738-2.939 3.377-5.238l1.203.494h-.001zM50.892 45.052L36.487 34.276l-3.943 1.68 6.899 14.531-3.083 1.464-15.463-32.565c.864-.474 5.678-3.016 7.037-3.662 6.377-3.028 11.342-.261 13.352 3.974 2.308 4.861 1.495 9.218-2.116 12.406l15.275 11.259-3.554 1.688zm-26.488-26.24L31.9 34.598c.988-.213 2.267-.756 3.574-1.377 3.921-1.862 5.042-6.109 2.685-11.075-2.284-4.809-6.07-6.982-9.833-5.195l-3.921 1.862zM57.992 42.405L48.667 7.463l16.885-4.506.776 2.907c-2.226-.484-5.311-.379-9.449.725L52.35 7.797l4.073 15.263 10.231-2.73.344 1.286-10.232 2.73 4.252 15.934 4.529-1.208c4.137-1.104 6.866-2.551 8.554-4.079l.776 2.907-16.884 4.505h-.001zM78.524 32.382c2.057 2.445 4.505 3.988 7.562 3.739 4.326-.352 6.98-3.413 6.661-7.336-.315-3.864-2.299-6.141-8.019-8.637-5.777-2.491-8.554-5.226-8.972-10.36C75.3 4.193 78.888.475 84.252.039c2.538-.207 6.074.434 7.956 1.443l-.674 3.132c-1.669-1.954-4.357-3.594-7.413-3.345-3.923.319-6.115 3.342-5.824 6.919.334 4.095 2.838 6.33 7.827 8.421 5.59 2.332 8.732 5.27 9.15 10.404.451 5.537-3.263 9.846-9.146 10.325-2.942.239-6.079-.492-8.277-1.823l.674-3.132zM119.147 36.073c-2.402 1.396-4.675 2.048-7.497 1.775-8.525-.824-13.585-9.22-12.539-20.049C100.119 7.373 106.22-.409 115.264.465c3.11.301 5.718 1.599 7.859 3.493l-1.932 2.546c-1.529-2.823-3.74-4.606-6.563-4.879-5.932-.573-10.583 5.43-11.58 15.741-1.041 10.771 2.618 18.625 9.53 19.293 2.189.212 3.995-.428 5.983-1.747l.585 1.161h.001zM122.24 38.713l9.686-34.845 16.837 4.68-.806 2.899c-1.673-1.546-4.385-3.021-8.511-4.168l-4.515-1.255-4.231 15.22 10.202 2.836-.356 1.283-10.202-2.836-4.417 15.889 4.516 1.255c4.126 1.147 7.211 1.284 9.441.823l-.806 2.899-16.837-4.68h-.001zM157.344 52.22l1.098-31.838c.041-1.657.212-3.314.411-4.635l-.26-.128-14.645 29.748-1.245-.614L158.6 12.461l3.502 1.272-1.097 31.838a38.3 38.3 0 01-.412 4.635l.26.128 14.645-29.748 1.246.614-15.898 32.292-3.502-1.273zM169.749 59.938l20.576-28.179-.701-.512c-3.131-2.286-5.971-3.5-8.221-3.853l1.774-2.43 18.6 13.581-1.774 2.43c-1.021-2.036-3.042-4.371-6.173-6.657l-.701-.512-20.576 28.179-2.804-2.048z"
       id="path2" />
    <g
       id="g6">
      <path
         d="M77.894 90.845c-2.256 1.62-4.456 2.488-7.291 2.488-8.563 0-14.408-7.87-14.408-18.748 0-10.474 5.323-18.806 14.408-18.806 3.125 0 5.844 1.042 8.159 2.72l-1.678 2.72c-1.794-2.662-4.166-4.224-7.002-4.224-5.96 0-10.011 6.423-10.011 16.78 0 10.82 4.398 18.285 11.341 18.285 2.199 0 3.935-.81 5.786-2.314l.694 1.099h.002zM83.121 92.638V56.473h3.472v36.165h-3.472zM100.416 92.638V57.746h-.868c-3.877 0-6.886.695-8.911 1.736v-3.009h23.03v3.009c-2.025-1.041-5.034-1.736-8.911-1.736h-.868v34.892h-3.472zM125.726 92.638V77.015l-9.374-20.542h3.819l8.275 18.459h.347l8.275-18.459h1.504l-9.374 20.658v15.508h-3.472z"
         id="path4" />
    </g>
    <g
       id="g14">
      <path
         d="M132.137 102.817h-69.77a.5.5 0 010-1h69.77a.5.5 0 010 1z"
         id="path8" />
      <circle
         cx="135.332"
         cy="102.159"
         r=".634"
         id="circle10" />
      <circle
         cx="59.435"
         cy="102.159"
         r=".634"
         id="circle12" />
    </g>
  </g>
</svg>
