<?xml version="1.0" encoding="UTF-8" standalone="no"?>
<svg
   id="a"
   width="166.74"
   height="118.811"
   viewBox="0 0 166.74 118.811"
   version="1.1"
   sodipodi:docname="03563373c80756a38e708ca1f50b79f4.svg"
   xmlns:inkscape="http://www.inkscape.org/namespaces/inkscape"
   xmlns:sodipodi="http://sodipodi.sourceforge.net/DTD/sodipodi-0.dtd"
   xmlns="http://www.w3.org/2000/svg"
   xmlns:svg="http://www.w3.org/2000/svg">
  <defs
     id="defs6" />
  <sodipodi:namedview
     id="namedview4"
     pagecolor="#ffffff"
     bordercolor="#666666"
     borderopacity="1.0"
     inkscape:pageshadow="2"
     inkscape:pageopacity="0.0"
     inkscape:pagecheckerboard="0" />
  <path
     id="b"
     d="m71.37,58.419c0-4.46,2.522-7.936,6.521-7.936,3.753,0,6.398,3.168,6.398,7.628s-2.522,7.936-6.521,7.936c-3.753,0-6.398-3.169-6.398-7.628Zm11.012.061c0-4.582-1.969-7.382-4.676-7.382-2.584,0-4.429,2.522-4.429,6.951,0,4.583,1.969,7.383,4.676,7.383,2.584,0,4.429-2.522,4.429-6.952Zm5.297,7.198v-14.826h7.69v1.384c-.892-.399-2.461-.738-4.184-.738h-1.845v6.491h4.86v.676h-4.86v7.013h-1.661ZM9.977,37.608V2.008h-.885c-3.956,0-7.025.708-9.092,1.771V.71h23.497v3.069c-2.066-1.063-5.136-1.771-9.092-1.771h-.885v35.6s-3.543,0-3.543,0Zm37.145,0v-18.479h-14.641v18.479h-3.483V.71h3.483v17.12h14.641V.71h3.483v36.898h-3.483Zm28.839,0l-8.561-16.235-4.368-.178v16.413h-3.483V.827c1.003-.059,6.554-.295,8.088-.295,7.202,0,10.568,4.723,10.568,9.506,0,5.49-2.656,9.151-7.379,10.509l9.15,17.062h-4.015,0ZM63.032,1.831v17.829c1.003.236,2.421.295,3.897.295,4.428,0,7.32-3.424,7.32-9.033,0-5.431-2.539-9.092-6.789-9.092h-4.428Zm20.111,17.829c0-10.922,6.258-19.66,15.35-19.66,8.501,0,14.996,7.675,14.996,18.657,0,10.921-6.259,19.659-15.35,19.659-8.561,0-14.996-7.675-14.996-18.656h0Zm26.389,0c0-11.394-5.077-18.42-11.512-18.42-6.14,0-10.922,6.317-10.922,17.417,0,11.394,5.078,18.419,11.512,18.419,6.14,0,10.922-6.317,10.922-17.416h0Zm27.202,18.184l-13.343-29.637c-.708-1.535-1.298-3.129-1.712-4.428h-.296v33.829h-1.416V.887l3.778-.413,13.343,29.636c.708,1.536,1.298,3.13,1.712,4.428h.295V.71h1.416v36.721l-3.778.413h.001Zm12.177-.236V.71h17.829v3.069c-2.066-1.063-5.136-1.771-9.505-1.771h-4.783v16.118h10.804v1.358h-10.804v16.825h4.783c4.368,0,7.439-.708,9.505-1.771v3.07h-17.829Zm-50.093-17.228c.159-.062.3-.16.433-.292.124-.124.221-.266.283-.424.07-.159.106-.336.106-.512,0-.079-.009-.167-.026-.256-.018-.079-.044-.167-.079-.248-.035-.079-.071-.159-.124-.229-.044-.071-.106-.141-.159-.203-.309-.3-.76-.442-1.201-.362-.079.017-.168.044-.247.079-.08.035-.159.071-.23.123-.071.045-.141.097-.194.16-.062.061-.124.132-.168.203-.053.071-.088.15-.123.229-.035.08-.062.168-.08.248-.009.089-.018.177-.018.256,0,.177.027.354.097.512.062.159.159.3.292.424.123.132.265.229.424.292.159.07.336.105.512.105.168,0,.345-.035.504-.105h-.002Zm-59.549,73.891l3.613.93-3.779,14.694c-2.937,1.684-6.107,2.025-9.359,1.188-8.913-2.292-12.888-12.048-9.976-23.368,2.804-10.901,10.575-18.146,20.029-15.715,3.252.836,5.803,2.648,7.763,5.014l-2.474,2.38c-1.155-3.25-3.206-5.511-6.156-6.27-6.203-1.595-12.138,4.005-14.91,14.784-2.897,11.262-.319,20.207,6.908,22.066,1.505.387,2.863.351,4.313-.046l4.028-15.658h0Zm8.593,20.318l7.095-37.706,3.668.681-6.845,36.361,4.952.92c4.524.84,7.839.697,10.183-.007l-.59,3.18-18.463-3.429h0Zm45.378,4.217l-3.711-13.934-12.125-.017-3.626,13.923-1.492-.002,9.69-36.673-.06-1.368,4.727-1.548,10.514,39.624-3.917-.006h0Zm-9.524-36.327h-.435l-5.501,21.009,11.441.016-5.504-21.025h-.001,0Zm21.091,29.838c2.464,2.391,5.248,3.775,8.49,3.177,4.586-.845,7.091-4.404,6.325-8.563-.755-4.097-3.124-6.316-9.508-8.365-6.446-2.036-9.711-4.66-10.714-10.102-1.093-5.932,2.339-10.295,8.026-11.343,2.691-.496,6.54-.194,8.661.681l-.381,3.421c-1.996-1.908-5.047-3.37-8.288-2.772-4.158.767-6.175,4.236-5.476,8.027.8,4.342,3.72,6.459,9.28,8.154,6.228,1.887,9.906,4.687,10.909,10.13,1.082,5.87-2.421,10.878-8.659,12.028-3.119.575-6.551.133-9.046-1.052l.381-3.421h0Zm26.347-4.356c2.75,2.055,5.689,3.071,8.826,2.062,4.44-1.426,6.468-5.277,5.175-9.303-1.274-3.966-3.908-5.863-10.501-7.075-6.653-1.193-10.228-3.375-11.92-8.644-1.845-5.742.999-10.508,6.504-12.277,2.605-.836,6.461-1.031,8.676-.437l.061,3.442c-2.225-1.637-5.437-2.694-8.574-1.686-4.025,1.293-5.58,4.993-4.401,8.663,1.35,4.203,4.517,5.928,10.248,6.896,6.418,1.073,10.424,3.377,12.116,8.646,1.826,5.682-1.006,11.099-7.044,13.038-3.019.97-6.48.972-9.105.117l-.061-3.442h0Z"
     fill="#fbffff"
     stroke-width="0" />
</svg>
